<svg xmlns="http://www.w3.org/2000/svg" width="89.9" height="77.5" viewBox="0 0 89.9 77.5">
  <g id="calendar-checklist-date-svgrepo-com" transform="translate(-15.1 -21.301)">
    <path id="Path_4920" data-name="Path 4920" d="M99.4,98.8H20.6a5.484,5.484,0,0,1-5.5-5.5V26.8a5.484,5.484,0,0,1,5.5-5.5H99.5a5.484,5.484,0,0,1,5.5,5.5V93.3A5.57,5.57,0,0,1,99.4,98.8Z" fill="#eef7ff"/>
    <path id="Path_4921" data-name="Path 4921" d="M99.4,44.7H20.6a5.484,5.484,0,0,1-5.5-5.5V26.8a5.484,5.484,0,0,1,5.5-5.5H99.5a5.484,5.484,0,0,1,5.5,5.5V39.2A5.57,5.57,0,0,1,99.4,44.7Z" fill="#628dfa"/>
    <g id="Group_794" data-name="Group 794">
      <path id="Path_4922" data-name="Path 4922" d="M34.2,53.3H24.3A1.324,1.324,0,0,0,23,54.6v6.2a1.324,1.324,0,0,0,1.3,1.3h9.9a1.324,1.324,0,0,0,1.3-1.3V54.6A1.4,1.4,0,0,0,34.2,53.3Z" fill="#b5f3ff"/>
      <path id="Path_4923" data-name="Path 4923" d="M54.7,53.3H44.8a1.324,1.324,0,0,0-1.3,1.3v6.2a1.324,1.324,0,0,0,1.3,1.3h9.9A1.324,1.324,0,0,0,56,60.8V54.6A1.324,1.324,0,0,0,54.7,53.3Z" fill="#b5f3ff"/>
      <path id="Path_4924" data-name="Path 4924" d="M75.2,53.3H65.3A1.324,1.324,0,0,0,64,54.6v6.2a1.324,1.324,0,0,0,1.3,1.3h9.9a1.324,1.324,0,0,0,1.3-1.3V54.6A1.324,1.324,0,0,0,75.2,53.3Z" fill="#b5f3ff"/>
      <path id="Path_4925" data-name="Path 4925" d="M34.2,67.3H24.3A1.324,1.324,0,0,0,23,68.6v6.2a1.324,1.324,0,0,0,1.3,1.3h9.9a1.324,1.324,0,0,0,1.3-1.3V68.6A1.4,1.4,0,0,0,34.2,67.3Z" fill="#b5f3ff"/>
      <path id="Path_4926" data-name="Path 4926" d="M54.7,67.3H44.8a1.324,1.324,0,0,0-1.3,1.3v6.2a1.324,1.324,0,0,0,1.3,1.3h9.9A1.324,1.324,0,0,0,56,74.8V68.6A1.324,1.324,0,0,0,54.7,67.3Z" fill="#b5f3ff"/>
      <path id="Path_4927" data-name="Path 4927" d="M75.2,67.3H65.3A1.324,1.324,0,0,0,64,68.6v6.2a1.324,1.324,0,0,0,1.3,1.3h9.9a1.324,1.324,0,0,0,1.3-1.3V68.6A1.324,1.324,0,0,0,75.2,67.3Z" fill="#b5f3ff"/>
      <path id="Path_4928" data-name="Path 4928" d="M34.2,81.4H24.3A1.324,1.324,0,0,0,23,82.7v6.2a1.324,1.324,0,0,0,1.3,1.3h9.9a1.324,1.324,0,0,0,1.3-1.3V82.7A1.4,1.4,0,0,0,34.2,81.4Z" fill="#b5f3ff"/>
      <path id="Path_4929" data-name="Path 4929" d="M54.7,81.4H44.8a1.324,1.324,0,0,0-1.3,1.3v6.2a1.324,1.324,0,0,0,1.3,1.3h9.9A1.324,1.324,0,0,0,56,88.9V82.7A1.324,1.324,0,0,0,54.7,81.4Z" fill="#b5f3ff"/>
      <path id="Path_4930" data-name="Path 4930" d="M75.2,81.4H65.3A1.324,1.324,0,0,0,64,82.7v6.2a1.324,1.324,0,0,0,1.3,1.3h9.9a1.324,1.324,0,0,0,1.3-1.3V82.7A1.324,1.324,0,0,0,75.2,81.4Z" fill="#b5f3ff"/>
    </g>
    <g id="Group_795" data-name="Group 795">
      <path id="Path_4931" data-name="Path 4931" d="M95.7,53.3H85.8a1.324,1.324,0,0,0-1.3,1.3v6.2a1.324,1.324,0,0,0,1.3,1.3h9.9A1.324,1.324,0,0,0,97,60.8V54.6A1.324,1.324,0,0,0,95.7,53.3Z" fill="#a9c1f9"/>
      <path id="Path_4932" data-name="Path 4932" d="M95.7,67.3H85.8a1.324,1.324,0,0,0-1.3,1.3v6.2a1.324,1.324,0,0,0,1.3,1.3h9.9A1.324,1.324,0,0,0,97,74.8V68.6A1.324,1.324,0,0,0,95.7,67.3Z" fill="#a9c1f9"/>
      <path id="Path_4933" data-name="Path 4933" d="M95.7,81.4H85.8a1.324,1.324,0,0,0-1.3,1.3v6.2a1.324,1.324,0,0,0,1.3,1.3h9.9A1.324,1.324,0,0,0,97,88.9V82.7A1.324,1.324,0,0,0,95.7,81.4Z" fill="#a9c1f9"/>
    </g>
    <g id="Group_796" data-name="Group 796">
      <path id="Path_4934" data-name="Path 4934" d="M27.9,59.9a1.746,1.746,0,0,0,1.2-.4l7-6.9a1.628,1.628,0,0,0-2.2-2.4l-6,5.8-3.4-3.8a1.628,1.628,0,0,0-2.4,2.2l4.5,5.1A2.5,2.5,0,0,0,27.9,59.9Z" fill="#6de8b1"/>
      <path id="Path_4935" data-name="Path 4935" d="M57.9,63.8a1.694,1.694,0,0,0-2.3-.1l-5.9,5.7-3.4-3.8a1.628,1.628,0,1,0-2.4,2.2l4.5,5.1a1.656,1.656,0,0,0,1.2.5,1.746,1.746,0,0,0,1.2-.4l7-6.9A1.7,1.7,0,0,0,57.9,63.8Z" fill="#6de8b1"/>
      <path id="Path_4936" data-name="Path 4936" d="M35.9,78.7,30,84.4l-3.4-3.8a1.628,1.628,0,0,0-2.4,2.2l4.5,5.1a1.656,1.656,0,0,0,1.2.5,1.746,1.746,0,0,0,1.2-.4l7-6.9a1.628,1.628,0,0,0-2.2-2.4Z" fill="#6de8b1"/>
    </g>
  </g>
</svg>
