<svg xmlns="http://www.w3.org/2000/svg" width="41.241" height="32.077" viewBox="0 0 41.241 32.077">
  <g id="Group_23" data-name="Group 23" transform="translate(2206.466 -693.652)">
    <path id="Path_4318" data-name="Path 4318" d="M951.564,4.329l-.2-.741a1.939,1.939,0,0,0,.924-1.66,1.894,1.894,0,1,0-3.787,0,1.94,1.94,0,0,0,.924,1.66l-.2.741-1.169,4.334h4.677Z" transform="translate(-3136.24 693.657)" fill="#b2b9ee"/>
    <path id="Path_4319" data-name="Path 4319" d="M397.316,340.029H373.979a6.3,6.3,0,0,1-6.236-6.365V322.986a6.3,6.3,0,0,1,6.236-6.365h23.336a6.3,6.3,0,0,1,6.236,6.365v10.677a6.3,6.3,0,0,1-6.236,6.365" transform="translate(-2571.493 385.699)" fill="#e4e7f8"/>
    <path id="Path_4320" data-name="Path 4320" d="M591.178,442.052h-14a5.545,5.545,0,0,1,0-11.088h14a5.545,5.545,0,0,1,0,11.088" transform="translate(-2770.022 274.487)" fill="#3975bb"/>
    <path id="Path_4321" data-name="Path 4321" d="M654.414,508a3.461,3.461,0,1,1-3.46-3.532,3.5,3.5,0,0,1,3.46,3.532" transform="translate(-2843.739 202.999)" fill="#282d33"/>
    <path id="Path_4322" data-name="Path 4322" d="M725.39,580.943a1.449,1.449,0,1,1-1.448-1.478,1.464,1.464,0,0,1,1.448,1.478" transform="translate(-2916.727 130.052)"/>
    <path id="Path_4323" data-name="Path 4323" d="M711.533,558.628a.9.9,0,1,1-.9-.914.9.9,0,0,1,.9.914" transform="translate(-2904.319 151.207)" fill="#dde7f1"/>
    <path id="Path_4324" data-name="Path 4324" d="M1171.914,508a3.461,3.461,0,1,1-3.46-3.532,3.5,3.5,0,0,1,3.46,3.532" transform="translate(-3347.358 202.999)" fill="#282d33"/>
    <path id="Path_4325" data-name="Path 4325" d="M1242.89,580.943a1.449,1.449,0,1,1-1.448-1.478,1.464,1.464,0,0,1,1.448,1.478" transform="translate(-3420.346 130.052)"/>
    <path id="Path_4326" data-name="Path 4326" d="M1229.034,558.628a.9.9,0,1,1-.9-.914.9.9,0,0,1,.9.914" transform="translate(-3407.938 151.207)" fill="#dde7f1"/>
    <path id="Path_4327" data-name="Path 4327" d="M268.112,584.122h1.1v-9.158h-1.1a1.636,1.636,0,0,0-1.619,1.653v5.852a1.636,1.636,0,0,0,1.619,1.653" transform="translate(-2472.959 134.429)" fill="#b2b9ee"/>
    <path id="Path_4328" data-name="Path 4328" d="M1703.839,584.122h-1.1v-9.158h1.1a1.636,1.636,0,0,1,1.619,1.653v5.852a1.636,1.636,0,0,1-1.619,1.653" transform="translate(-3870.683 134.429)" fill="#b2b9ee"/>
    <path id="Path_4329" data-name="Path 4329" d="M414.286,676.631v7.186a6.3,6.3,0,0,1-6.236,6.365H384.714a6.254,6.254,0,0,1-5.941-4.423c21.493,1.243,31.5-5.232,35.513-9.129" transform="translate(-2582.227 35.546)" fill="#d2d5e4"/>
    <path id="Path_4330" data-name="Path 4330" d="M1705.459,588.823v5.852a1.637,1.637,0,0,1-1.619,1.653h-1.1v-6.374a15.29,15.29,0,0,0,2.085-2.44,1.663,1.663,0,0,1,.631,1.309" transform="translate(-3870.683 122.223)" fill="#9fa5d4"/>
    <path id="Path_4331" data-name="Path 4331" d="M921.236,949.964a3.231,3.231,0,0,1-6.463,0Z" transform="translate(-3103.85 -230.304)" fill="#3b2450"/>
  </g>
</svg>
