<svg xmlns="http://www.w3.org/2000/svg" width="43.031" height="46.48" viewBox="0 0 43.031 46.48">
  <path id="Union_1" data-name="Union 1" d="M-5614.117-2195.52a8.583,8.583,0,0,1-6.122-2.616,8.6,8.6,0,0,1-2.614-6.31,8.6,8.6,0,0,1,2.614-6.312,8.6,8.6,0,0,1,6.313-2.617,8.6,8.6,0,0,1,6.312,2.617,8.6,8.6,0,0,1,2.614,6.312,8.6,8.6,0,0,1-2.614,6.31,8.583,8.583,0,0,1-6.122,2.616Zm-4-13.063a5.726,5.726,0,0,0-1.715,4.186,5.7,5.7,0,0,0,1.715,4.168,5.7,5.7,0,0,0,4.187,1.734,5.645,5.645,0,0,0,4.168-1.734,5.68,5.68,0,0,0,1.732-4.168,5.7,5.7,0,0,0-1.732-4.186,5.645,5.645,0,0,0-4.168-1.734A5.7,5.7,0,0,0-5618.113-2208.583Zm-17.553,13.062a1.417,1.417,0,0,1-1.046-.44,1.4,1.4,0,0,1-.441-1.047v-9.646a6.652,6.652,0,0,1,1.962-4.757,6.476,6.476,0,0,1,4.757-1.962h.933a1.458,1.458,0,0,1,1.063.44,1.488,1.488,0,0,1,.425,1.063v.034a1.434,1.434,0,0,1-.425,1.046,1.459,1.459,0,0,1-1.063.441h-.933a3.55,3.55,0,0,0-2.613,1.08,3.639,3.639,0,0,0-1.081,2.614v9.646a1.4,1.4,0,0,1-.44,1.047,1.427,1.427,0,0,1-1.047.44Zm16.5-23.335a7.135,7.135,0,0,1-2.174-5.231v-8.944a1.455,1.455,0,0,1,.44-1.063,1.447,1.447,0,0,1,1-.44h.152a1.444,1.444,0,0,1,1,.44,1.455,1.455,0,0,1,.44,1.063v8.944a4.253,4.253,0,0,0,1.275,3.105,4.283,4.283,0,0,0,3.123,1.275,4.253,4.253,0,0,0,3.105-1.275,4.247,4.247,0,0,0,1.275-3.105v-8.944a1.448,1.448,0,0,1,.444-1.063,1.449,1.449,0,0,1,1.011-.44h.136a1.392,1.392,0,0,1,.994.44,1.445,1.445,0,0,1,.441,1.063v8.944a7.131,7.131,0,0,1-2.174,5.231,7.119,7.119,0,0,1-5.233,2.176A7.146,7.146,0,0,1-5619.17-2218.856Zm-7.519,2.176a1.451,1.451,0,0,1-1.063-.442,1.4,1.4,0,0,1-.443-1.047v-8.943a4.257,4.257,0,0,0-1.275-3.107,4.224,4.224,0,0,0-3.105-1.291,4.258,4.258,0,0,0-3.124,1.291,4.257,4.257,0,0,0-1.275,3.107v8.943a1.406,1.406,0,0,1-.44,1.047,1.442,1.442,0,0,1-1.048.442h-.049a1.438,1.438,0,0,1-1.046-.442,1.4,1.4,0,0,1-.442-1.047v-8.943a7.161,7.161,0,0,1,2.174-5.25,7.155,7.155,0,0,1,5.127-2.173h.245a7.13,7.13,0,0,1,5.11,2.173,7.151,7.151,0,0,1,2.174,5.25v8.943a1.392,1.392,0,0,1-.441,1.047,1.393,1.393,0,0,1-1.046.442Zm25.2-17.29a3.513,3.513,0,0,1-3.512-3.519,3.515,3.515,0,0,1,3.516-3.51h0a3.515,3.515,0,0,1,3.512,3.519A3.517,3.517,0,0,1-5599-2235a3.406,3.406,0,0,1-2.436,1.028Zm-2.961-3.53a2.964,2.964,0,0,0,2.961,2.965,2.965,2.965,0,0,0,2.967-2.961,2.965,2.965,0,0,0-.868-2.1,2.878,2.878,0,0,0-2.093-.866v0h0A2.967,2.967,0,0,0-5604.45-2237.5Zm4.1,2.215a.253.253,0,0,1-.187-.079.247.247,0,0,1-.079-.187v-.542a.812.812,0,0,0-.245-.592.8.8,0,0,0-.535-.243h-.956v1.377a.253.253,0,0,1-.075.187.254.254,0,0,1-.189.079h-.007a.246.246,0,0,1-.187-.079.246.246,0,0,1-.08-.187v-3.079a1.013,1.013,0,0,1,.307-.743,1.015,1.015,0,0,1,.748-.312h.381a1.326,1.326,0,0,1,.974.4,1.332,1.332,0,0,1,.4.975,1.326,1.326,0,0,1-.4.974,1.4,1.4,0,0,1-.151.13,1.982,1.982,0,0,1,.154.136,1.329,1.329,0,0,1,.4.972v.542a.242.242,0,0,1-.079.187.251.251,0,0,1-.188.079Zm-1.846-3.71a.5.5,0,0,0-.146.272.521.521,0,0,0-.01.119v1.134h.9a.818.818,0,0,0,.593-.242.812.812,0,0,0,.245-.593.813.813,0,0,0-.245-.594.819.819,0,0,0-.593-.243h-.337A.548.548,0,0,0-5602.2-2239Z" transform="translate(5640.5 2241.5)" stroke="rgba(0,0,0,0)" stroke-width="1"/>
</svg>
