<svg xmlns="http://www.w3.org/2000/svg" width="172" height="56.438" viewBox="0 0 172 56.438">
  <g id="Group_2344" data-name="Group 2344" transform="translate(-880 -215.74)">
    <path id="nuronics_logo_text" d="M4.3-12.154a.921.921,0,0,1-.281.674.915.915,0,0,1-.671.282H3.3a.915.915,0,0,1-.671-.282.921.921,0,0,1-.281-.674v-8.569a6.413,6.413,0,0,1,1.936-4.7,6.369,6.369,0,0,1,4.684-1.943,6.351,6.351,0,0,1,4.668,1.943,6.413,6.413,0,0,1,1.936,4.7v8.569a.921.921,0,0,1-.281.674.915.915,0,0,1-.671.282h-.031a.933.933,0,0,1-.687-.282.921.921,0,0,1-.281-.674v-8.569a4.543,4.543,0,0,0-1.358-3.306,4.486,4.486,0,0,0-3.294-1.379,4.5,4.5,0,0,0-3.31,1.379A4.543,4.543,0,0,0,4.3-20.723Zm16.346-5.671A4.543,4.543,0,0,0,22-14.52a4.529,4.529,0,0,0,3.31,1.363A4.511,4.511,0,0,0,28.6-14.52a4.543,4.543,0,0,0,1.358-3.306v-8.569a.939.939,0,0,1,.281-.689.933.933,0,0,1,.687-.282h.031a.915.915,0,0,1,.671.282.939.939,0,0,1,.281.689v8.569a6.4,6.4,0,0,1-1.936,4.684A6.351,6.351,0,0,1,25.309-11.2a6.369,6.369,0,0,1-4.684-1.943,6.4,6.4,0,0,1-1.936-4.684v-8.569a.939.939,0,0,1,.281-.689.915.915,0,0,1,.671-.282h.047a.915.915,0,0,1,.671.282.939.939,0,0,1,.281.689Zm21.232-9.541a.933.933,0,0,1,.687.282.968.968,0,0,1,.265.689v.031a.915.915,0,0,1-.265.674.933.933,0,0,1-.687.282h-.89a3.844,3.844,0,0,0-2.826,1.175A3.954,3.954,0,0,0,36.987-21.4v9.243a.921.921,0,0,1-.281.674.915.915,0,0,1-.671.282h-.047a.915.915,0,0,1-.671-.282.921.921,0,0,1-.281-.674V-21.4a5.935,5.935,0,0,1,1.733-4.23,5.728,5.728,0,0,1,4.215-1.739Zm10.257,1.99a5.884,5.884,0,0,0-4.325,1.8,5.952,5.952,0,0,0-1.78,4.34,5.933,5.933,0,0,0,1.78,4.324,5.884,5.884,0,0,0,4.325,1.8,5.8,5.8,0,0,0,4.309-1.8,5.907,5.907,0,0,0,1.8-4.324,5.925,5.925,0,0,0-1.8-4.34A5.8,5.8,0,0,0,52.131-25.376Zm0-1.99A7.75,7.75,0,0,1,57.829-25a7.8,7.8,0,0,1,2.357,5.718,7.8,7.8,0,0,1-2.357,5.718,7.75,7.75,0,0,1-5.7,2.366,7.75,7.75,0,0,1-5.7-2.366,7.8,7.8,0,0,1-2.357-5.718A7.8,7.8,0,0,1,46.432-25,7.75,7.75,0,0,1,52.131-27.366ZM64.792-12.154a.921.921,0,0,1-.281.674.915.915,0,0,1-.671.282h-.047a.915.915,0,0,1-.671-.282.921.921,0,0,1-.281-.674v-8.569a6.413,6.413,0,0,1,1.936-4.7,6.369,6.369,0,0,1,4.684-1.943,6.351,6.351,0,0,1,4.668,1.943,6.413,6.413,0,0,1,1.936,4.7v8.569a.921.921,0,0,1-.281.674.915.915,0,0,1-.671.282H75.08a.933.933,0,0,1-.687-.282.921.921,0,0,1-.281-.674v-8.569a4.543,4.543,0,0,0-1.358-3.306,4.486,4.486,0,0,0-3.294-1.379,4.5,4.5,0,0,0-3.31,1.379,4.543,4.543,0,0,0-1.358,3.306ZM80.763-27.366a.915.915,0,0,1,.671.282.939.939,0,0,1,.281.689v14.241a.921.921,0,0,1-.281.674.915.915,0,0,1-.671.282h-.031a.933.933,0,0,1-.687-.282.921.921,0,0,1-.281-.674V-26.395a.939.939,0,0,1,.281-.689.933.933,0,0,1,.687-.282Zm-.016-3.917a1.206,1.206,0,0,1-.89-.36,1.215,1.215,0,0,1-.359-.893,1.2,1.2,0,0,1,.359-.877,1.206,1.206,0,0,1,.89-.36,1.188,1.188,0,0,1,.874.36,1.2,1.2,0,0,1,.375.877,1.222,1.222,0,0,1-.375.893A1.188,1.188,0,0,1,80.747-31.283Zm12.271,3.917a7.721,7.721,0,0,1,2.435.392.866.866,0,0,1,.671.909v.078a.9.9,0,0,1-.39.768.911.911,0,0,1-.859.157,5.553,5.553,0,0,0-1.858-.313,5.884,5.884,0,0,0-4.325,1.8,5.952,5.952,0,0,0-1.78,4.34,5.933,5.933,0,0,0,1.78,4.324,5.884,5.884,0,0,0,4.325,1.8,6.113,6.113,0,0,0,1.858-.282.9.9,0,0,1,.859.125.912.912,0,0,1,.39.783.881.881,0,0,1-.671.909,8.015,8.015,0,0,1-2.435.376,7.75,7.75,0,0,1-5.7-2.366,7.8,7.8,0,0,1-2.357-5.718A7.8,7.8,0,0,1,87.32-25,7.75,7.75,0,0,1,93.018-27.366Zm9.664,1.958a2.463,2.463,0,0,0-1.811.752,2.514,2.514,0,0,0-.749,1.817,2.419,2.419,0,0,0,1.405,2.256,24.274,24.274,0,0,0,2.795.846,5.561,5.561,0,0,1,2.357,1.175,3.713,3.713,0,0,1,1.015,2.836,4.411,4.411,0,0,1-1.311,3.212,4.38,4.38,0,0,1-3.2,1.316H99.107a.915.915,0,0,1-.671-.282.921.921,0,0,1-.281-.674v-.031a.939.939,0,0,1,.281-.689.915.915,0,0,1,.671-.282h4.231a2.463,2.463,0,0,0,1.811-.752,2.48,2.48,0,0,0,.749-1.817,2.259,2.259,0,0,0-1.421-2.146q-.3-.141-2.779-.846a5.963,5.963,0,0,1-2.357-1.191,3.974,3.974,0,0,1-1.015-2.93,4.359,4.359,0,0,1,1.311-3.2,4.354,4.354,0,0,1,3.2-1.332h2.873a.933.933,0,0,1,.687.282.939.939,0,0,1,.281.689v.031a.921.921,0,0,1-.281.674.933.933,0,0,1-.687.282Z" transform="translate(944.307 261.516)" fill="#fff"/>
    <path id="nuronics_logo" d="M61.233,45.225a1.2,1.2,0,0,1,.848,1.119s-.059-1.188-1.008-1.306l-.021-.031a3.853,3.853,0,0,0-.331-.435,4,4,0,0,0-1.655-1.021,6.294,6.294,0,0,1-2.393-.972c-.01-.01-1.069-1.049.016-1.27.091-.018.17-.036.239-.053.16.583.525.985.861.919.366-.072.553-.668.42-1.329s-.535-1.139-.9-1.067-.537.629-.43,1.264c-.161,0-.306,0-.306,0s-1.189.169-.512-1.183a2.029,2.029,0,0,1,.776-.752c2.908-1.118,4.562,2.577,4.562,2.577a4.646,4.646,0,0,0-2.567-2.894c.408-.156,1.135.317,1.135.317a1.525,1.525,0,0,0,.637.241,1.856,1.856,0,0,1-.568-.325,1.821,1.821,0,0,0-1.3-.469,9.631,9.631,0,0,1-2.421-.663,7.292,7.292,0,0,1-.657-.355c-.3-.2-1.192-.873-.058-1.431.265.52.586.865.753.789.186-.084.112-.65-.165-1.265s-.652-1.047-.838-.965-.115.606.135,1.193l-.056.015a1.317,1.317,0,0,1-1.527-.852,1.528,1.528,0,0,1,.031-.387c.041-.932.83-1.311,1.385-1.738a2.1,2.1,0,0,0,.776-1.574,2.165,2.165,0,0,1-.685,1.287l.082-.238c.443-.87-.074-2.226-.094-2.473s-.012-.517-.012-.517c-.31.578.553,1.69-.026,2.852a1.817,1.817,0,0,1-1.836,1.144c-.344-.064-1.123-.327-.489-1.352,0,0,0,0,0,0,.316.292.627.438.748.332.143-.128-.044-.571-.418-.988s-.8-.653-.939-.525.023.515.351.908c-.074.064-.935.8-1.285.016-.012-.033-.028-.066-.038-.1h0a2.253,2.253,0,0,1-.059-.236c-.007-.034-.012-.067-.018-.105,0-.015,0-.026-.007-.038a2.7,2.7,0,0,1,.762-2.147,3.722,3.722,0,0,0,.735-2.222.564.564,0,0,1,.125-.414s-.206.125-.249.842a2.486,2.486,0,0,1-.761,1.546,2.923,2.923,0,0,0-.761-2.153,3.874,3.874,0,0,1-.733-2.383c-.4.985.344,2.148.843,2.977s.741,3.01-1.4,3.415c0,0-1.061.1-.822-1.08.012-.054.02-.1.026-.146.52.225,1.013.217,1.187-.057.212-.335-.128-.931-.762-1.331s-1.321-.456-1.533-.121.125.926.754,1.326c-.343.287-1.174.868-1.505.074-.035-.1-.063-.189-.086-.276,0-.018-.008-.034-.012-.048a2.7,2.7,0,0,1-.076-.476c.239-3.975-1.558-5.144-1.558-5.144.166-3.23-1.856-3.54-1.856-3.54A3.246,3.246,0,0,1,45.294,23.2a13.37,13.37,0,0,0-3.019-2.235,7.106,7.106,0,0,1-2.011-2.173,5.5,5.5,0,0,0,2.7,2.939,5.756,5.756,0,0,1,3.49,5.341s-.4,2.767-3.1-.555c.664-.043,1.168-.31,1.232-.709.086-.53-.641-1.088-1.624-1.247s-1.849.143-1.937.671.637,1.085,1.617,1.246l0,.008s-.7,2.685-2.615,1.69a4.294,4.294,0,0,1-1.448-1.5,11.1,11.1,0,0,0-3.261-3.788c-.86-.7-.581-2.422-.581-2.422a2.171,2.171,0,0,0-.955-2.022c-.713-.524-.9-.742-.942-.832.015.108.148.377.86.972a2.006,2.006,0,0,1,.842,1.656,16.079,16.079,0,0,0-.021,1.988l-.3-.166C31.571,20.355,30.8,20.5,28.58,19.744a8.294,8.294,0,0,1-3.427-2.194c.675,1.5,3.625,2.432,3.625,2.432,3.318.939,9.056,3.465,8.3,7.8h-.008S36.713,30,33.643,28.873a5.2,5.2,0,0,0-.878-.259c.731-.788.995-1.725.575-2.324-.53-.758-1.952-.684-3.173.166s-1.782,2.153-1.252,2.912,1.952.684,3.173-.166q.148-.1.282-.217a4.536,4.536,0,0,0,.706.8s1.678,1.874.362,2.692a13.261,13.261,0,0,1-6.266.655c-7.869-1.111-12.106.814-12.106.814C11.162,30.777,8.4,33.9,8.4,33.9a5.08,5.08,0,0,1,6.365.153c-2.108.986-2.395,1.5-4.641,3.512-1.061.952-4.363,1.738-4.363,1.738s3.412-.156,5.288-2.239c2.292-2.544,7.305-5.428,15.337-2.958a8.991,8.991,0,0,1,3.7,2.079c.158.231,2.225,3.373-2.218,4.264-.166.033-.315.066-.451.1-.4-2.1-1.767-3.655-3.4-3.655-1.943,0-3.519,2.2-3.519,4.914s1.576,4.914,3.519,4.914,3.519-2.2,3.519-4.914c0-.215-.013-.427-.033-.635.461.048,5.051.589,4.29,2.943-.59,1.372-2.123,3.675-6.057,5.518C20.672,52,18.283,51.909,14.17,53.9s-4.389,3.822-4.389,3.822a8.371,8.371,0,0,1,5.346-3.7s1.772.125-.527,4.016c0,0,1.91-2.457,1.275-4.43,0,0,2.012-.793,4.45-1.456A44.452,44.452,0,0,0,26.9,50.186c2.576-1.1,4.456-2.086,6.062-1.976a7.919,7.919,0,0,1,.968.13c.171.046,3.106.9.886,4.175a6.761,6.761,0,0,0-.519.873,5.2,5.2,0,0,0-.646-.263c-2.371-.771-4.835.253-5.5,2.288s.718,4.31,3.089,5.08,4.835-.253,5.5-2.288a3.931,3.931,0,0,0-1.609-4.316,7.554,7.554,0,0,0,.776-.427s3.318-1.666,3.84.973c.446,3.143-.748,7.978-7.361,14.715,0,0-6.258,1.633-8.315,4.837a20.191,20.191,0,0,1,4.577-3.222,26.788,26.788,0,0,1,3.738-1.139s.478,1.72-1.945,4.361c0,0,2.161-.663,2.492-4.858,0,0,4.7-3.685,8.946-12.669a6.691,6.691,0,0,1,1.708-2.321c.044-.028,1.866-1.167,2.525,1.956a5.071,5.071,0,0,0,.25.883.081.081,0,0,0-.02,0c-1.976.166-3.481,1.43-3.365,2.823s1.815,2.39,3.789,2.224S50.25,60.6,50.133,59.2c-.105-1.251-1.485-2.178-3.195-2.235a5.06,5.06,0,0,0,.239-.881s.809-2.7,2.334-1.666c.95.954,1.821,2.593,2.064,5.413a10.478,10.478,0,0,1-3.612,9.306s-2.205,1.423-2.011,3.714a5.422,5.422,0,0,1,1.523-3A13.027,13.027,0,0,0,50.437,66.7l.249.194a3.639,3.639,0,0,1,1.087,4.494,4.6,4.6,0,0,0,.56-2.312,4.033,4.033,0,0,0-1.467-2.36c-.3-.345-.013-.924-.013-.924,2.52-4.029.914-11.508.914-11.508a6.021,6.021,0,0,1,.166-2.828.969.969,0,0,1,1.808,0c.043.064.082.12.119.171a3.486,3.486,0,0,0-.726.837c-.746,1.195-.678,2.58.15,3.094s2.106-.036,2.852-1.231.679-2.58-.15-3.094a1.683,1.683,0,0,0-1.756.13c-.028-.125-.054-.22-.054-.22s-.45-1.909.716-1.851a.846.846,0,0,0,.114,0c.954.079,2.319.612,3.48,2.69a11.981,11.981,0,0,1,1.049,2.26c-1.565,2.047-1.7,5.451-1.7,5.451.9-4.4,1.782-4.94,1.782-4.94.8,2.18-.54,6.652-.54,6.652,3.119-8.008-1.247-10.469-2.617-12.972a7.376,7.376,0,0,1-.73-1.768c-.013-.148-.079-1.249.94-.906l.053.016c-.015.053-.028.105-.041.159-.194.876.086,1.684.627,1.8s1.138-.494,1.332-1.372-.086-1.684-.627-1.8c-.445-.1-.926.3-1.192.931-.069-.062-.127-.11-.127-.11s-.8-.619-.278-1.174a.494.494,0,0,0,.041-.048c.188-.2,1.042-.936,2.923-.135,0,0,2.814,1.05,2.742,5.122A5.361,5.361,0,0,0,61.233,45.225ZM57.619,40c.148-.03.351.359.453.87s.064.947-.084.977-.351-.359-.453-.87S57.471,40.032,57.619,40ZM31.635,28.431c-.94.655-1.989.778-2.34.276s.127-1.439,1.067-2.094,1.989-.778,2.34-.276S32.577,27.777,31.635,28.431ZM23.78,45.454c-1.54,0-2.786-1.671-2.786-3.731s1.248-3.731,2.786-3.731,2.786,1.671,2.786,3.731S25.318,45.454,23.78,45.454Zm11.581,12.69a3.041,3.041,0,0,1-3.941,1.64,2.81,2.81,0,1,1,1.728-5.28A3.026,3.026,0,0,1,35.361,58.145ZM48.479,27.987c.1-.159.555-.053,1.014.238s.748.655.647.814-.555.053-1.014-.238S48.379,28.146,48.479,27.987Zm-7.116-2.941c.053-.323.758-.479,1.573-.346s1.436.5,1.383.824-.758.479-1.573.346S41.311,25.369,41.363,25.046Zm7.75,34.581c.084,1-.993,1.9-2.406,2.019s-2.627-.594-2.711-1.59.993-1.9,2.406-2.019S49.029,58.629,49.113,59.627Zm1.55-16.25c-1.889,1.31-5,.11-6.951-2.683s-2-6.119-.11-7.428,5-.11,6.951,2.683S52.552,42.065,50.663,43.377ZM55.89,51.95c.581.361.629,1.333.105,2.171s-1.42,1.224-2,.863-.629-1.333-.105-2.171S55.307,51.589,55.89,51.95Zm1.258-5.961c.142-.637.565-1.085.945-1s.575.668.433,1.3-.565,1.085-.945,1S57.007,46.626,57.148,45.989Z" transform="translate(874.24 198.19)" fill="#fff"/>
  </g>
</svg>
