<svg xmlns="http://www.w3.org/2000/svg" xmlns:xlink="http://www.w3.org/1999/xlink" width="300" height="117.882" viewBox="0 0 300 117.882">
  <defs>
    <linearGradient id="linear-gradient" x1="0.014" y1="0.09" x2="0.95" y2="0.453" gradientUnits="objectBoundingBox">
      <stop offset="0" stop-color="#f650a0"/>
      <stop offset="1" stop-color="#ff9897"/>
    </linearGradient>
    <filter id="Path_4337" x="0" y="0" width="300" height="117.882" filterUnits="userSpaceOnUse">
      <feOffset dy="2" input="SourceAlpha"/>
      <feGaussianBlur stdDeviation="6" result="blur"/>
      <feFlood flood-color="#1381ee" flood-opacity="0.2"/>
      <feComposite operator="in" in2="blur"/>
      <feComposite in="SourceGraphic"/>
    </filter>
    <linearGradient id="linear-gradient-2" x1="0.326" y1="0.433" x2="0.853" y2="0.539" gradientUnits="objectBoundingBox">
      <stop offset="0" stop-color="#ebf4fc"/>
      <stop offset="1" stop-color="#dadede"/>
    </linearGradient>
    <linearGradient id="linear-gradient-3" x1="0.539" y1="-0.087" x2="0.566" y2="1.51" gradientUnits="objectBoundingBox">
      <stop offset="0" stop-color="#ebf4fc"/>
      <stop offset="1" stop-color="#cfd0d0"/>
    </linearGradient>
    <radialGradient id="radial-gradient" cx="0.5" cy="0.5" r="0.556" gradientUnits="objectBoundingBox">
      <stop offset="0" stop-color="#6edcff"/>
      <stop offset="1" stop-color="#687df6"/>
    </radialGradient>
    <linearGradient id="linear-gradient-4" x1="0.5" y1="-0.599" x2="0.833" y2="1.587" xlink:href="#linear-gradient-3"/>
    <radialGradient id="radial-gradient-2" cx="0.5" cy="0.5" r="0.48" xlink:href="#radial-gradient"/>
    <linearGradient id="linear-gradient-5" x1="0" y1="1.314" x2="1.39" y2="-0.682" xlink:href="#linear-gradient-3"/>
    <radialGradient id="radial-gradient-3" cx="0.5" cy="0.5" r="0.624" xlink:href="#radial-gradient"/>
    <linearGradient id="linear-gradient-7" x2="1" y2="1" gradientUnits="objectBoundingBox">
      <stop offset="0" stop-color="#7984b5"/>
      <stop offset="1" stop-color="#6c77ad"/>
    </linearGradient>
    <linearGradient id="linear-gradient-8" x1="0.326" y1="0.567" x2="0.853" y2="0.461" xlink:href="#linear-gradient-2"/>
    <linearGradient id="linear-gradient-9" x1="0" y1="1" x2="1" y2="0" xlink:href="#linear-gradient-7"/>
    <linearGradient id="linear-gradient-10" x1="0.355" y1="0.172" x2="0.478" y2="1.232" xlink:href="#linear-gradient-2"/>
    <linearGradient id="linear-gradient-12" x1="0.187" y1="0.209" x2="0.865" y2="0.824" gradientUnits="objectBoundingBox">
      <stop offset="0" stop-color="#dadede"/>
      <stop offset="1" stop-color="#ebf4fc"/>
    </linearGradient>
    <linearGradient id="linear-gradient-13" x1="0.5" x2="0.5" y2="1" gradientUnits="objectBoundingBox">
      <stop offset="0"/>
      <stop offset="1" stop-color="#222"/>
    </linearGradient>
    <linearGradient id="linear-gradient-14" x1="0.5" y1="-0.574" x2="0.5" y2="0.859" gradientUnits="objectBoundingBox">
      <stop offset="0" stop-color="#fff"/>
      <stop offset="1" stop-color="#101531" stop-opacity="0"/>
    </linearGradient>
    <radialGradient id="radial-gradient-4" cx="0.136" cy="0.164" r="0.654" gradientUnits="objectBoundingBox">
      <stop offset="0" stop-color="#a0dcfe"/>
      <stop offset="1" stop-color="#6edcff"/>
    </radialGradient>
    <radialGradient id="radial-gradient-5" cx="0.261" cy="0.257" r="0.543" gradientUnits="objectBoundingBox">
      <stop offset="0" stop-color="#f3fafe"/>
      <stop offset="1" stop-color="#6edcff"/>
    </radialGradient>
    <radialGradient id="radial-gradient-6" cx="0.702" cy="0.24" r="0.486" xlink:href="#radial-gradient-5"/>
  </defs>
  <g id="Group_2358" data-name="Group 2358" transform="translate(-4495 -15332)">
    <g id="Group_44" data-name="Group 44" transform="translate(4513 15348)">
      <g transform="matrix(1, 0, 0, 1, -18, -16)" filter="url(#Path_4337)">
        <path id="Path_4337-2" data-name="Path 4337" d="M1019.68-50.811V14.137c-21.551-2.953-60.91-5.1-125.694,1.61-88.228,9.132-126.1.864-138.306-3.121V-50.811A11.182,11.182,0,0,1,766.853-62h241.654A11.182,11.182,0,0,1,1019.68-50.811Z" transform="translate(-737.68 78)" fill="url(#linear-gradient)"/>
      </g>
    </g>
    <g id="Group_662" data-name="Group 662" transform="translate(3.593 2)">
      <path id="nurochat" d="M34.51,26.1a.856.856,0,0,1-.612-.253.825.825,0,0,1-.262-.612V18.076a4.623,4.623,0,0,1,9.247.02,4.625,4.625,0,0,1-4.623,4.613,4.821,4.821,0,0,1-2.865-1.03v3.555a.863.863,0,0,1-.865.865Zm1.719-10.044a2.866,2.866,0,0,0,2.03,4.886,2.87,2.87,0,0,0,2.02-4.9,2.884,2.884,0,0,0-4.05.009Zm39.494,6.4a.85.85,0,0,1-.252-.612v-.166a4.892,4.892,0,0,1-2.857,1.03A4.609,4.609,0,0,1,67.991,18.1a4.618,4.618,0,1,1,9.237,0v3.749a.862.862,0,0,1-.865.864A.868.868,0,0,1,75.722,22.457Zm-5.138-6.382a2.728,2.728,0,0,0-.835,2.021,2.837,2.837,0,0,0,2.865,2.856A2.869,2.869,0,0,0,75.47,18.1a2.886,2.886,0,0,0-2.857-2.866A2.76,2.76,0,0,0,70.584,16.075Zm-5.751,6.381a.823.823,0,0,1-.262-.612v-7.5a.877.877,0,0,1,.884-.874h.01a.823.823,0,0,1,.612.262.846.846,0,0,1,.262.612v7.5a.862.862,0,0,1-.262.612.853.853,0,0,1-.612.253A.867.867,0,0,1,64.833,22.456Zm-9.791-1.1a4.631,4.631,0,0,1,0-6.537,4.467,4.467,0,0,1,3.263-1.35,4.89,4.89,0,0,1,2.866,1.039V10.956a.855.855,0,0,1,.253-.612.869.869,0,0,1,.612-.252h.019a.9.9,0,0,1,.612.243.859.859,0,0,1,.262.621v7.16a4.609,4.609,0,0,1-4.623,4.594A4.428,4.428,0,0,1,55.042,21.359Zm1.244-5.265a2.859,2.859,0,0,0,0,4.041,2.736,2.736,0,0,0,2.02.845,2.67,2.67,0,0,0,2.021-.845,2.838,2.838,0,0,0,0-4.041,2.673,2.673,0,0,0-2.021-.845A2.7,2.7,0,0,0,56.286,16.094ZM24.66,21.359a4.61,4.61,0,0,1,0-6.537A4.623,4.623,0,0,1,32.547,18.1a4.622,4.622,0,0,1-7.887,3.263Zm1.234-5.265a2.866,2.866,0,0,0,2.03,4.886,2.87,2.87,0,0,0,2.856-2.865,2.727,2.727,0,0,0-.836-2.021,2.686,2.686,0,0,0-2.02-.845A2.74,2.74,0,0,0,25.894,16.094Zm-7.526,6.362a.821.821,0,0,1-.263-.612V16.978a3.522,3.522,0,0,1,1.02-2.477,3.407,3.407,0,0,1,2.487-1.029h.476a.89.89,0,0,1,.621.252.92.92,0,0,1,.243.622.874.874,0,0,1-.243.631.891.891,0,0,1-.621.253h-.476a1.7,1.7,0,0,0-1.234.515,1.726,1.726,0,0,0-.515,1.244v4.856a.862.862,0,0,1-.864.865A.864.864,0,0,1,18.368,22.456Zm-8.189-.874a3.719,3.719,0,0,1-1.127-2.719V14.346a.885.885,0,0,1,.253-.622.915.915,0,0,1,1.252,0,.889.889,0,0,1,.253.622v4.517a2.09,2.09,0,0,0,2.1,2.088,2.09,2.09,0,0,0,2.1-2.088V14.346a.874.874,0,0,1,.253-.622.906.906,0,0,1,1.253.01.835.835,0,0,1,.253.612v4.517a3.849,3.849,0,0,1-3.857,3.846A3.74,3.74,0,0,1,10.179,21.582Zm34.9-.224a4.63,4.63,0,0,1,0-6.536,4.608,4.608,0,0,1,5.789-.593,4.528,4.528,0,0,1,1.681,1.943.848.848,0,0,1,.019.67.875.875,0,0,1-.447.486L49.079,18.7c-1.243.563-2.2.992-2.875,1.292a2.876,2.876,0,0,0,2.137.991,2.8,2.8,0,0,0,1.69-.553,2.692,2.692,0,0,0,1.01-1.371.849.849,0,0,1,.845-.591A.862.862,0,0,1,52.7,19.63a4.515,4.515,0,0,1-1.652,2.214,4.589,4.589,0,0,1-2.71.864A4.425,4.425,0,0,1,45.077,21.358Zm1.244-5.264a2.725,2.725,0,0,0-.836,2.021,1.5,1.5,0,0,0,.02.272l4.9-2.224a2.886,2.886,0,0,0-2.069-.914A2.7,2.7,0,0,0,46.321,16.094ZM6.207,22.456a.846.846,0,0,1-.253-.612V17.337a2.042,2.042,0,0,0-.612-1.486,2.013,2.013,0,0,0-1.487-.622,2.013,2.013,0,0,0-1.486.622,2,2,0,0,0-.612,1.486v4.507a.849.849,0,0,1-.252.612.907.907,0,0,1-1.253,0A.849.849,0,0,1,0,21.844V17.337A3.763,3.763,0,0,1,1.127,14.6a3.74,3.74,0,0,1,2.729-1.127A3.755,3.755,0,0,1,6.585,14.6a3.763,3.763,0,0,1,1.127,2.739v4.507a.823.823,0,0,1-.262.612.837.837,0,0,1-.612.252A.863.863,0,0,1,6.207,22.456ZM64.727,11.84a1,1,0,0,1-.291-.719.98.98,0,0,1,.291-.719,1.045,1.045,0,0,1,1.447-.009,1.01,1.01,0,0,1,.01,1.447,1.034,1.034,0,0,1-.729.3A1.015,1.015,0,0,1,64.727,11.84ZM14.637,6.762a2.336,2.336,0,0,1-.857-.931,2.909,2.909,0,0,1-.313-1.363,2.849,2.849,0,0,1,.313-1.359,2.283,2.283,0,0,1,.862-.907,2.366,2.366,0,0,1,1.219-.322,2.223,2.223,0,0,1,1.151.286,1.9,1.9,0,0,1,.728.717V1.962h.848V7.01h-.848V6.071A1.993,1.993,0,0,1,17,6.8a2.23,2.23,0,0,1-1.148.29A2.286,2.286,0,0,1,14.637,6.762Zm.535-3.934a1.6,1.6,0,0,0-.617.645,2.055,2.055,0,0,0-.23.995,2.1,2.1,0,0,0,.23,1.008,1.619,1.619,0,0,0,.617.654,1.658,1.658,0,0,0,.856.226,1.688,1.688,0,0,0,.862-.226,1.612,1.612,0,0,0,.622-.654,2.067,2.067,0,0,0,.229-1,2.047,2.047,0,0,0-.229-.995,1.62,1.62,0,0,0-.622-.649,1.765,1.765,0,0,0-1.718-.005ZM1.579,6.647A3.067,3.067,0,0,1,.423,5.481,3.35,3.35,0,0,1,0,3.8a3.378,3.378,0,0,1,.423-1.69A3.082,3.082,0,0,1,1.579.931,3.191,3.191,0,0,1,3.2.507a3.3,3.3,0,0,1,1.834.508A2.9,2.9,0,0,1,6.181,2.451H5.176a2.013,2.013,0,0,0-.768-.894,2.237,2.237,0,0,0-1.2-.313A2.346,2.346,0,0,0,2,1.557a2.181,2.181,0,0,0-.839.889A2.85,2.85,0,0,0,.856,3.8a2.837,2.837,0,0,0,.3,1.341A2.184,2.184,0,0,0,2,6.025,2.337,2.337,0,0,0,3.2,6.338a2.251,2.251,0,0,0,1.2-.309,1.982,1.982,0,0,0,.768-.889H6.181A2.894,2.894,0,0,1,5.039,6.564a3.334,3.334,0,0,1-1.834.5A3.224,3.224,0,0,1,1.579,6.647Zm42.489.363V4.154A1.63,1.63,0,0,0,43.69,3a1.349,1.349,0,0,0-1.031-.4,1.383,1.383,0,0,0-1.055.415,1.691,1.691,0,0,0-.391,1.207V7.01h-.838V.193h.838V2.68a1.641,1.641,0,0,1,.686-.6,2.222,2.222,0,0,1,.981-.212,2.166,2.166,0,0,1,1.032.244,1.734,1.734,0,0,1,.723.732A2.476,2.476,0,0,1,44.9,4.034V7.01Zm-5.693,0a1.5,1.5,0,0,1-1.05-.322,1.381,1.381,0,0,1-.35-1.059V2.653H36.32V1.962h.654V.691h.838V1.962H39.13v.691H37.813V5.629a.7.7,0,0,0,.158.52.772.772,0,0,0,.543.152h.617V7.01Zm-4.081,0V1.962h.839V7.01Zm-3.5,0L29.578,3,28.362,7.01H27.5L25.911,1.962h.858L27.929,6.2l1.253-4.238h.856l1.226,4.247,1.142-4.247h.829L31.658,7.01Zm-8.971,0a1.5,1.5,0,0,1-1.05-.322,1.381,1.381,0,0,1-.351-1.059V2.653h-.654V1.962h.654V.691h.839V1.962h1.318v.691H21.26V5.629a.7.7,0,0,0,.158.52.77.77,0,0,0,.543.152h.617V7.01Zm-10.473,0V4.154A1.63,1.63,0,0,0,10.971,3a1.35,1.35,0,0,0-1.032-.4,1.383,1.383,0,0,0-1.055.415,1.69,1.69,0,0,0-.391,1.207V7.01H7.655V.193h.838V2.68a1.636,1.636,0,0,1,.686-.6,2.219,2.219,0,0,1,.981-.212,2.171,2.171,0,0,1,1.032.244,1.739,1.739,0,0,1,.723.732,2.486,2.486,0,0,1,.263,1.188V7.01ZM34.321.976a.549.549,0,0,1-.166-.4.551.551,0,0,1,.166-.405.552.552,0,0,1,.4-.166.524.524,0,0,1,.392.166.561.561,0,0,1,.161.405.56.56,0,0,1-.161.4.522.522,0,0,1-.392.166A.549.549,0,0,1,34.321.976Z" transform="translate(4574 15374)" fill="#fff" stroke="rgba(0,0,0,0)" stroke-width="1"/>
      <g id="Nuropedia_Avatar" data-name="Nuropedia Avatar" transform="translate(-4175.593 2343)">
        <g id="Body" transform="translate(8701.602 13042.64)">
          <path id="Body-2" data-name="Body" d="M60.162,166.725c-.114,0-.228.008-.341.013s-.226.01-.338.016c-.149.009-.3.019-.444.031s-.292.022-.436.037-.262.025-.393.042l-.067.008c-.111.011-.222.025-.332.042l-.261.035-.2.031c-.181.027-.359.058-.533.09a16.659,16.659,0,0,0-2.689.722,8.279,8.279,0,0,0-1.609.792h0a8.374,8.374,0,0,0-2.721,2.816,8.466,8.466,0,0,0-1.177,4.114,8.38,8.38,0,0,0,.2,2.024q.161.721.347,1.42c2.108,7.949,6.552,13.427,11.694,13.427s9.586-5.478,11.694-13.427q.186-.7.346-1.42a8.459,8.459,0,0,0,.178-1.2,8.271,8.271,0,0,0-.021-1.494,8.47,8.47,0,0,0-.963-3.135,8.163,8.163,0,0,0-.489-.8,8.339,8.339,0,0,0-2.391-2.311.048.048,0,0,0-.01-.007,8.319,8.319,0,0,0-1.613-.794,16.675,16.675,0,0,0-2.667-.717l-.157-.029-.156-.026c-.08-.014-.161-.026-.243-.04l-.2-.031c-.555-.083-1.127-.142-1.709-.18-.518-.035-1.051-.054-1.595-.054q-.351,0-.693.01" transform="translate(-48.614 -166.715)" fill="url(#linear-gradient-2)"/>
          <path id="Neck_Ring" data-name="Neck Ring" d="M72.389,169.51c0,1.227,4.035,2.222,9.013,2.222s9.013-.995,9.013-2.222-4.035-2.8-9.013-2.8-9.013,1.57-9.013,2.8" transform="translate(-69.16 -166.713)" fill="url(#linear-gradient-3)"/>
          <path id="Neck" d="M85.926,172.708c0,.977,3.212,1.768,7.175,1.768s7.175-.792,7.175-1.768-3.212-2.227-7.175-2.227-7.175,1.25-7.175,2.227" transform="translate(-80.859 -169.969)" fill="url(#radial-gradient)"/>
          <path id="Right_Shoulder_Ring" data-name="Right Shoulder Ring" d="M49.809,197.619a8.466,8.466,0,0,0-1.177,4.114c.026.711.226,1.2.594,1.293.645.161,1.5-1.042,1.911-2.688s.221-3.11-.425-3.271a.456.456,0,0,0-.111-.014c-.257,0-.532.21-.792.565" transform="translate(-48.63 -192.934)" fill="url(#linear-gradient-4)"/>
          <path id="Right_Shoulder" data-name="Right Shoulder" d="M51.154,205.261c-.3,1.191-.152,2.253.323,2.371s1.1-.751,1.4-1.942.153-2.253-.323-2.371a.364.364,0,0,0-.089-.011c-.462,0-1.031.835-1.31,1.953" transform="translate(-50.676 -198.338)" fill="url(#radial-gradient-2)"/>
          <path id="Left_Shoulder_Ring" data-name="Left Shoulder Ring" d="M210.513,196.762c-.645.161-.836,1.626-.426,3.271s1.266,2.849,1.912,2.688a.673.673,0,0,0,.432-.431,8.27,8.27,0,0,0-.021-1.494,8.47,8.47,0,0,0-.963-3.135,8.16,8.16,0,0,0-.489-.8.624.624,0,0,0-.335-.11.463.463,0,0,0-.111.013" transform="translate(-187.972 -192.67)" fill="url(#linear-gradient-5)"/>
          <path id="Left_Shoulder" data-name="Left Shoulder" d="M213.36,200.551c-.49.123-.625,1.278-.3,2.58s.986,2.26,1.477,2.137c.3-.075.47-.543.477-1.2a8.47,8.47,0,0,0-.963-3.135.875.875,0,0,0-.6-.4.361.361,0,0,0-.086.01" transform="translate(-190.575 -195.947)" fill="url(#radial-gradient-3)"/>
        </g>
        <g id="Right_Hand" data-name="Right Hand" transform="translate(8695.147 13046.718)">
          <path id="Hand" d="M6.5,196.782c-3.2.379-4.072,4.5-5.284,11.152,0,.021-.008.043-.01.064-.027.148-.048.295-.065.444a7.388,7.388,0,0,0-.014,1.649c.141,1.3.661,2.832,2.431,1.709a6.166,6.166,0,0,0,1.721-2.04c.075-.127.151-.257.225-.391a51.953,51.953,0,0,0,3.608-9.48,3.3,3.3,0,0,0,.109-1.31,1.953,1.953,0,0,0-2.181-1.829,4.6,4.6,0,0,0-.538.033" transform="translate(-1.088 -196.749)" fill="url(#linear-gradient-2)"/>
          <path id="Band" d="M1.667,280.053c-.013.073-.025.145-.035.219a7.147,7.147,0,0,1,1.428.133,5.8,5.8,0,0,1,2.748,1.246c.036-.06.072-.122.106-.184A6.005,6.005,0,0,0,3.1,280.19a7.3,7.3,0,0,0-1.379-.137H1.667" transform="translate(-1.558 -268.74)" fill="url(#linear-gradient-7)"/>
        </g>
        <g id="Left_Hand" data-name="Left Hand" transform="matrix(0.423, 0.906, -0.906, 0.423, 8736.146, 13038.189)">
          <path id="Hand-2" data-name="Hand" d="M5.414,15.407c-3.2-.379-4.072-4.5-5.284-11.152,0-.021-.008-.043-.01-.064C.092,4.044.071,3.9.054,3.748A7.388,7.388,0,0,1,.039,2.1C.18.8.7-.733,2.471.391A6.166,6.166,0,0,1,4.191,2.43c.075.127.151.257.225.391A51.953,51.953,0,0,1,8.024,12.3a3.3,3.3,0,0,1,.109,1.31,1.953,1.953,0,0,1-2.181,1.829,4.6,4.6,0,0,1-.538-.033" transform="translate(0 0)" fill="url(#linear-gradient-8)"/>
          <path id="Band-2" data-name="Band" d="M.035,1.6C.021,1.524.01,1.453,0,1.379a7.144,7.144,0,0,0,1.428-.133A5.8,5.8,0,0,0,4.176,0c.036.06.072.122.106.184A6,6,0,0,1,1.47,1.461,7.3,7.3,0,0,1,.09,1.6H.035" transform="translate(0.074 2.53)" fill="url(#linear-gradient-9)"/>
        </g>
        <g id="Head" transform="translate(8695 13020)">
          <path id="Ears" d="M0,49.678c0,4.529,8.516,8.2,19.02,8.2s19.02-3.671,19.02-8.2-8.515-8.2-19.02-8.2S0,45.149,0,49.678" transform="translate(0 -35.845)" fill="url(#linear-gradient-10)"/>
          <path id="Head-2" data-name="Head" d="M34.2,0A18.345,18.345,0,0,0,22.341,4.155a13.276,13.276,0,0,0-4.981,10.01A9.981,9.981,0,0,0,23.009,23.2c2.819,1.511,6.585,1.948,11.191,1.948s8.371-.437,11.191-1.948a9.981,9.981,0,0,0,5.649-9.036,13.276,13.276,0,0,0-4.981-10.01A18.345,18.345,0,0,0,34.2,0Z" transform="translate(-15.003 0)" fill="url(#linear-gradient-2)"/>
          <path id="Face_Ring" data-name="Face Ring" d="M58.085,19.374h-.063a10.434,10.434,0,0,0-1.113.012,21.989,21.989,0,0,0-6.534,1.531C47.227,22.264,44.31,24.07,45.4,31.906c.434,3.133,1.828,4.942,3.827,5.979,2.122,1.1,4.929,1.335,8,1.367.555,0,1.106,0,1.648,0,3.075-.032,5.882-.267,8-1.367,2-1.036,3.392-2.846,3.827-5.979,1.086-7.836-1.828-9.642-4.979-10.989a21.978,21.978,0,0,0-6.53-1.531s-.24-.02-.649-.02c-.137,0-.292,0-.464.008" transform="translate(-39.033 -16.736)" fill="url(#linear-gradient-12)"/>
          <path id="Face" d="M62.034,43.658c-2.774-.029-5.631-.2-7.708-1.28-1.926-1-2.994-2.693-3.36-5.33-1.079-7.759,1.866-9.02,4.465-10.132a21.587,21.587,0,0,1,6.326-1.482c.029,0,.245-.019.607-.019.128,0,.274,0,.435.008h.137c.161-.006.307-.008.435-.008.362,0,.579.017.581.017a21.6,21.6,0,0,1,6.35,1.484c2.6,1.111,5.543,2.37,4.467,10.131-.366,2.637-1.433,4.331-3.36,5.33-2.077,1.076-4.933,1.252-7.711,1.28-.271,0-.548,0-.826,0s-.558,0-.839,0" transform="translate(-43.847 -21.964)" stroke="rgba(0,0,0,0)" stroke-width="1" fill="url(#linear-gradient-13)"/>
          <path id="Face_Highlight" data-name="Face Highlight" d="M69.541,33.063h-.209c-.148-.005-.282-.007-.4-.007-.3,0-.488.013-.546.017a20.665,20.665,0,0,0-5.978,1.4c-2.476,1.06-4.815,2.06-3.845,9.035.32,2.306,1.186,3.71,2.81,4.551,1.884.977,4.593,1.137,7.238,1.164q.418,0,.832,0c.276,0,.55,0,.815,0,2.649-.027,5.361-.187,7.245-1.164,1.623-.842,2.489-2.245,2.809-4.552.967-6.977-1.371-7.976-3.847-9.034a20.521,20.521,0,0,0-6.021-1.4c-.009,0-.195-.014-.5-.014-.118,0-.251,0-.4.007" transform="translate(-50.416 -28.567)" fill="url(#linear-gradient-14)"/>
          <path id="Mouth" d="M122.338,115.05a.21.21,0,0,0-.208.229,2.445,2.445,0,0,0,4.868,0,.21.21,0,0,0-.208-.229Z" transform="translate(-105.544 -99.426)" fill="url(#radial-gradient-4)"/>
        </g>
        <g id="Eyes" transform="translate(8706.689 13027.062)">
          <path id="Left_Eye" data-name="Left Eye" d="M164.831,52.526c-.994.364-1.355,1.871-.808,3.366s1.8,2.411,2.792,2.047,1.355-1.872.807-3.366a2.9,2.9,0,0,0-2.336-2.127,1.317,1.317,0,0,0-.456.08" transform="translate(-153.218 -52.446)" fill="url(#radial-gradient-5)"/>
          <path id="Right_Eye" data-name="Right Eye" d="M86.337,54.264c-.548,1.495-.186,3,.807,3.366s2.244-.552,2.792-2.047.187-3-.807-3.366a1.318,1.318,0,0,0-.456-.08,2.9,2.9,0,0,0-2.336,2.126" transform="translate(-86.082 -52.138)" fill="url(#radial-gradient-6)"/>
        </g>
      </g>
    </g>
    <path id="Path_4810" data-name="Path 4810" d="M433.811,81.147a.705.705,0,0,0-1,0l-2.535,2.5-2.5-2.5a.707.707,0,1,0-1,1l2.994,2.994a.707.707,0,0,0,1,0l0,0,3.029-2.994a.706.706,0,0,0,0-1l0,0" transform="translate(4323.423 15306.059)" fill="#fff"/>
  </g>
</svg>
